<?xml version="1.0" ?><!DOCTYPE svg  PUBLIC '-//W3C//DTD SVG 1.1//EN'  'http://www.w3.org/Graphics/SVG/1.1/DTD/svg11.dtd'><svg height="2048px" style="shape-rendering:geometricPrecision; text-rendering:geometricPrecision; image-rendering:optimizeQuality; fill-rule:evenodd; clip-rule:evenodd" viewBox="0 0 2048 2048" width="2048px" xml:space="preserve" xmlns="http://www.w3.org/2000/svg" xmlns:xlink="http://www.w3.org/1999/xlink"><defs><style type="text/css">
   <![CDATA[
    .fil2 {fill:none}
    .fil0 {fill:#00ACEC}
    .fil1 {fill:#FFFFFE}
   ]]>
  </style></defs><g id="Layer_x0020_1"><path class="fil0" d="M1499.97 548.053c-121.814,-121.808 -290.098,-197.15 -475.961,-197.15 -21.1925,0 -42.5386,1.04764 -63.9709,3.08032 -19.0134,1.80354 -37.6583,4.36418 -55.9075,7.63938 -74.9693,-62.7284 -168.132,-92.5182 -260.338,-89.328 -94.1103,3.2563 -187.207,40.7563 -258.973,112.525 -71.7745,71.7591 -109.279,164.858 -112.532,258.975 -3.18662,92.1993 26.6091,185.361 89.3528,260.335 -3.28229,18.2339 -5.85,36.8693 -7.65709,55.8768 -2.0374,21.4335 -3.0874,42.7843 -3.0874,63.9827 0,185.875 75.3461,354.149 197.152,475.956 121.813,121.813 290.098,197.157 475.961,197.157 21.2055,0 42.5622,-1.04882 64.0075,-3.08504 19.0087,-1.80591 37.65,-4.37244 55.8993,-7.65473 74.9528,62.7367 168.105,92.53 260.306,89.3434 94.1103,-3.25276 187.212,-40.754 258.983,-112.521 71.7603,-71.7627 109.26,-164.867 112.514,-258.985 3.18662,-92.2005 -26.602,-185.361 -89.3351,-260.323 3.2811,-18.241 5.84764,-36.8788 7.65355,-55.8851 2.0374,-21.4417 3.08622,-42.7961 3.08622,-64.0016 0,-185.863 -75.3461,-354.134 -197.153,-475.936z"/><path class="fil1" d="M1347.41 782.916c0,-53.9079 -40.9607,-98.0339 -103.201,-129.012 -64.7481,-32.2252 -153.503,-50.6422 -241.595,-50.6422 -156.3,0 -338.892,69.1867 -338.892,256.344 0,77.4863 26.4059,130.342 69.8186,168.151 42.2351,36.7831 100.113,58.3619 165.025,74.4012l0.0625985 0 126.671 30.9248 -0.00708662 0.0283465 11.289 2.79213c62.4461,15.4866 100.437,24.9106 100.437,64.2792 0,16.761 -9.92599,31.8591 -27.6248,42.8941 -19.2484,12.0024 -47.1792,19.2378 -81.6875,19.2378 -83.641,0 -123.053,-40.0748 -157.184,-74.7816 -30.2622,-30.7725 -56.954,-57.9119 -103.824,-57.9119 -32.8748,0 -57.5056,11.185 -74.6138,28.8803 -19.3536,20.0197 -28.363,47.9563 -28.363,77.08 0,59.3115 43.6394,112.424 113.492,150.234 67.1103,36.326 159.171,58.9004 259.314,58.9004 90.906,0 184.355,-24.8055 251.351,-76.6064 58.1587,-44.9705 96.4064,-109.821 96.4064,-195.913 0,-81.4619 -39.4205,-136.093 -95.3564,-174.11 -53.9185,-36.6473 -122.79,-57.1394 -185.433,-71.4686l-89.9138 -20.6516 -0.125197 0c-31.9382,-7.10552 -59.5831,-13.4764 -78.2776,-23.5772 -15.1701,-8.19686 -24.1902,-19.4847 -24.1902,-37.5331 0,-15.6165 8.35276,-27.2469 23.2169,-35.2087 19.174,-10.2709 48.3532,-15.1358 84.6355,-15.1358 69.7737,0 101.689,28.7315 129.804,54.0414 26.2429,23.6256 49.6973,44.7402 92.8276,44.7402l0.00472441 -0.0625985c32.9126,-0.0011811 59.4603,-13.1386 77.8394,-33.7087 18.1477,-20.3126 28.0925,-47.7059 28.0925,-76.6064z"/></g><rect class="fil2" height="2048" width="2048"/></svg>