<?xml version="1.0" ?><!DOCTYPE svg  PUBLIC '-//W3C//DTD SVG 1.1//EN'  'http://www.w3.org/Graphics/SVG/1.1/DTD/svg11.dtd'><svg height="2048px" style="shape-rendering:geometricPrecision; text-rendering:geometricPrecision; image-rendering:optimizeQuality; fill-rule:evenodd; clip-rule:evenodd" viewBox="0 0 2048 2048" width="2048px" xml:space="preserve" xmlns="http://www.w3.org/2000/svg" xmlns:xlink="http://www.w3.org/1999/xlink"><defs><style type="text/css">
   <![CDATA[
    .fil3 {fill:none}
    .fil1 {fill:#54CC61}
    .fil0 {fill:#EEEEEE}
    .fil2 {fill:#FFFFFE}
   ]]>
  </style></defs><g id="Layer_x0020_1"><g id="_316006000"><path class="fil0" d="M731.013 1639.91l-364.614 116.034 -110.4 35.1307 155.094 -458.096c-26.0268,-47.8406 -46.6429,-98.5217 -61.3311,-151.006 -17.8181,-63.6839 -26.8087,-129.5 -26.8087,-195.626 0,-194.586 77.419,-379.06 215.433,-515.963 138.463,-137.349 324.318,-213.454 519.307,-213.454 194.93,0 380.684,76.1965 519.029,213.565 137.956,136.986 215.277,321.503 215.277,516.085 0,194.55 -77.4048,379.004 -215.378,515.899 -138.411,137.327 -324.205,213.456 -519.146,213.456 -61.8473,0 -123.464,-7.63465 -183.389,-22.9654 -49.4209,-12.6425 -97.3843,-30.4559 -143.075,-53.0599z" id="_316005568"/><path class="fil1" d="M1733.42 986.578c0,-185.293 -75.6568,-353.061 -197.974,-474.518 -122.303,-121.44 -291.219,-196.553 -477.754,-196.553 -186.696,0 -355.694,75.0875 -478.054,196.462 -122.414,121.429 -198.109,289.166 -198.109,474.375 0,62.1709 8.59843,122.502 24.6425,179.84 15.9425,56.9705 39.2646,110.91 68.8276,160.696l-117.108 345.896 -9.25749 27.3461 27.5067 -8.75316 360.192 -114.627c47.687,25.6642 98.7083,45.7725 152.271,59.4768 53.9658,13.8047 110.525,21.137 168.871,21.137 186.613,0 355.559,-75.0922 477.886,-196.461 122.379,-121.422 198.059,-289.142 198.059,-474.316z" id="_316005808"/><path class="fil2" d="M947.772 803.395c-2.96693,-5.97756 -20.0953,-47.3445 -35.8819,-85.4741 -10.0913,-24.3756 -19.7162,-47.6209 -21.6036,-52.1174 -17.7791,-42.3898 -37.4292,-41.1118 -52.5012,-40.1327 -0.989765,0.0637796 -1.94291,0.126378 -3.21733,0.126378 -5.25945,0 -10.428,-0.327166 -15.7843,-0.666142 -6.69686,-0.425197 -13.6476,-0.865749 -20.2169,-0.865749 -8.73308,0 -20.6291,1.81181 -33.1547,7.67481 -9.28938,4.34764 -18.8728,10.8945 -27.6437,20.5311 -1.27913,1.38189 -2.24292,2.39528 -3.28937,3.49488 -20.8689,21.9366 -66.3615,69.7548 -66.3615,161.591 0,96.3343 69.469,187.947 79.6772,201.401l-0.0366142 0.0271654 0.0944883 0.124016 0.114567 0.114567c0.400394,0.516142 1.87441,2.67284 4.05355,5.86063 25.6559,37.5225 143.601,210.02 322.897,280.049 162.658,63.4701 192.091,56.3469 218.381,49.9867 4.47638,-1.08307 8.84528,-2.14134 13.5732,-2.57835 21.2894,-2.00079 56.1178,-16.5756 85.4268,-37.0418 24.313,-16.9784 45.5363,-38.4343 53.6611,-61.0264 7.24961,-20.2004 11.3492,-38.9658 13.2496,-54.4122 2.76142,-22.4374 0.575197,-40.0914 -3.5067,-46.9111l-0.0578741 -0.0578741c-6.2067,-10.226 -16.9441,-15.2953 -33.0496,-22.9004 -2.84055,-1.34055 -5.87717,-2.77323 -8.79449,-4.18583l0.00944883 -0.0188977c-11.1059,-5.64804 -49.5296,-24.4347 -82.3737,-39.9603 -21.2232,-10.0335 -40.0819,-18.6532 -47.55,-21.3331 -10.5047,-3.77244 -19.6571,-6.62481 -29.4697,-5.5193 -11.1248,1.25551 -20.8299,6.98504 -29.8264,20.6114l-0.0271654 -0.0177165c-4.5189,6.78662 -12.4772,16.963 -21.176,27.6189 -13.7776,16.878 -30.215,35.8299 -37.2201,43.787l0 0.0578741c-2.99055,3.40512 -5.57008,5.26063 -8.09883,5.56536 -3.51024,0.424016 -8.33505,-1.01457 -15.0154,-4.29567 -4.27087,-2.13662 -8.43308,-3.93425 -13.5673,-6.15 -25.9748,-11.2063 -76.5638,-33.0343 -134.221,-84.0827 -20.6244,-18.254 -38.7744,-38.2099 -53.9339,-56.9339 -24.5339,-30.3047 -41.1142,-57.3036 -47.7024,-68.6764 -5.2004,-8.91851 0.577559,-14.7 5.9126,-20.0351l-0.0271654 -0.0307087c5.89961,-5.89252 12.5752,-13.9169 19.2756,-21.9685 3.05079,-3.66733 6.10276,-7.33701 9.81497,-11.6126l0.056693 -0.0578741c9.03544,-10.5059 12.7807,-18.1583 17.837,-28.4847 0.879922,-1.79764 1.80236,-3.6815 2.73071,-5.53229l0.056693 -0.056693c4.44567,-8.95867 5.58308,-17.4827 4.75512,-25.4669 -0.768898,-7.43268 -3.2563,-14.0658 -6.29174,-20.0079l0.022441 -0.0106299z" id="_316006024"/></g></g><rect class="fil3" height="2048" width="2048"/></svg>