<?xml version="1.0" encoding="utf-8"?>
<svg xmlns="http://www.w3.org/2000/svg" viewBox="0,0,256,256" width="48px" height="48px" fill-rule="nonzero">
  <defs>
    <linearGradient x1="4.338" y1="-10.056" x2="38.984" y2="49.954" gradientUnits="userSpaceOnUse" id="color-1">
      <stop offset="0" stop-color="#4b4b4b"/>
      <stop offset="0.247" stop-color="#3e3e3e"/>
      <stop offset="0.686" stop-color="#2b2b2b"/>
      <stop offset="1" stop-color="#252525"/>
    </linearGradient>
  </defs>
  <g transform="matrix(1.333334, 0, 0, 1.333334, -42.666695, -42.666668)" style="">
    <g fill="none" fill-rule="nonzero" stroke="none" stroke-width="1" stroke-linecap="butt" stroke-linejoin="miter" stroke-miterlimit="10" stroke-dasharray="" stroke-dashoffset="0" font-family="none" font-weight="none" font-size="none" text-anchor="none" style="mix-blend-mode: normal">
      <g transform="scale(5.33333,5.33333)">
        <path d="M38,42h-28c-2.209,0 -4,-1.791 -4,-4v-28c0,-2.209 1.791,-4 4,-4h28c2.209,0 4,1.791 4,4v28c0,2.209 -1.791,4 -4,4z" fill="url(#color-1)"/>
        <path d="M34.257,34h-6.437l-13.991,-20h6.437zM28.587,32.304h2.563l-11.651,-16.608h-2.563z" fill="#ffffff"/>
        <path d="M15.866,34l7.203,-8.344l-0.942,-1.249l-8.304,9.593z" fill="#ffffff"/>
        <path d="M24.45,21.721l0.905,1.289l7.781,-9.01h-2z" fill="#ffffff"/>
      </g>
    </g>
  </g>
</svg>