<?xml version="1.0" ?><svg data-name="Layer 1" id="Layer_1" viewBox="0 0 512 512" xmlns="http://www.w3.org/2000/svg"><title/><rect fill="#dd2925" height="412.22" rx="55.43" width="412.22" x="49.89" y="49.89"/><path d="M378,213.69s-1.29-43.89-48.65-46.26c0,0-75.17-4.41-149.33.36,0,0-43.41.88-46.12,42.82,0,0-3.56,47.65-.57,87.83,0,0,.94,40.61,45.25,44,0,0,99.79,4.56,160.83-.56,0,0,32.56-1.39,37.9-38.35C377.27,303.53,382.71,273.15,378,213.69Zm-114.1,64.24-38,21.92v-87.7l38,21.92,38,21.93Z" fill="#fefefe"/></svg>